<?xml version="1.0" standalone="no"?>
<!DOCTYPE svg PUBLIC "-//W3C//DTD SVG 20010904//EN"
 "http://www.w3.org/TR/2001/REC-SVG-20010904/DTD/svg10.dtd">
<svg version="1.0" xmlns="http://www.w3.org/2000/svg"
 width="1600.000000pt" height="1600.000000pt" viewBox="0 0 1600.000000 1600.000000"
 preserveAspectRatio="xMidYMid meet">
<metadata>
Created by potrace 1.14, written by Peter Selinger 2001-2017
</metadata>
<g transform="translate(0.000000,1600.000000) scale(0.100000,-0.100000)"
fill="#000000" stroke="none">
<path d="M3878 11745 c-2 -1 -30 -6 -63 -9 -33 -4 -71 -9 -85 -11 -14 -3 -41
-7 -60 -10 -19 -3 -42 -8 -50 -10 -8 -2 -27 -6 -42 -9 -33 -5 -191 -53 -233
-69 -88 -35 -250 -126 -320 -180 -175 -134 -304 -288 -403 -482 -68 -133 -127
-301 -147 -416 -3 -19 -10 -52 -15 -75 -5 -22 -12 -69 -16 -105 -3 -35 -8 -67
-10 -70 -13 -22 -16 -483 -16 -2144 0 -1034 3 -1923 6 -1975 10 -146 17 -204
36 -305 5 -27 11 -61 14 -75 15 -91 78 -276 133 -390 193 -401 529 -661 988
-765 39 -9 86 -18 105 -21 378 -53 740 -31 1032 61 89 28 298 124 298 136 0 5
5 9 11 9 38 0 254 182 350 296 32 37 129 188 149 229 8 17 22 41 31 55 9 14
20 36 24 50 4 14 13 39 20 55 28 67 82 247 90 300 2 11 10 65 18 120 9 55 19
125 23 155 10 72 13 3975 3 4100 -25 323 -80 543 -190 762 -41 82 -119 210
-139 228 -3 3 -25 30 -50 60 -54 67 -128 139 -206 199 -182 143 -459 251 -734
288 -19 3 -62 8 -95 13 -55 7 -449 12 -457 5z m337 -1005 c28 -7 57 -13 65
-15 8 -2 29 -9 45 -16 17 -6 35 -13 42 -15 24 -5 103 -65 142 -110 55 -62 97
-152 124 -265 l22 -94 0 -2040 c0 -1122 -4 -2062 -8 -2090 -22 -137 -82 -282
-145 -348 -93 -97 -239 -149 -417 -149 -212 0 -373 84 -470 245 -19 31 -32 57
-29 57 2 0 -2 13 -11 30 -20 39 -42 139 -51 230 -8 85 -9 3945 -1 4030 5 54
18 120 36 190 31 121 116 236 220 297 100 60 315 90 436 63z"/>
<path d="M6474 11671 c-2 -2 -4 -1578 -4 -3502 l0 -3497 550 1 550 0 0 1076 0
1076 31 55 c17 30 62 116 101 190 39 74 77 142 84 151 8 8 14 21 14 27 0 7 10
29 23 50 12 20 36 63 52 94 17 32 32 58 35 58 3 0 22 -46 44 -103 21 -56 53
-140 71 -187 18 -47 115 -299 215 -560 99 -261 185 -485 191 -498 5 -13 124
-322 263 -686 140 -364 262 -681 271 -703 l16 -41 564 0 563 1 -8 21 c-5 11
-74 188 -155 391 -81 204 -149 377 -152 385 -3 8 -47 121 -98 250 -51 129
-121 307 -155 395 -35 88 -123 312 -197 498 -73 186 -133 340 -133 342 0 3 -9
24 -19 48 -10 23 -56 137 -101 252 -219 562 -262 671 -271 690 -5 11 -52 130
-104 265 -53 135 -105 266 -116 292 l-19 48 69 142 c38 79 133 274 211 433 78
160 182 371 230 470 48 99 147 302 220 450 73 149 181 369 240 490 59 121 163
333 230 470 234 478 320 656 320 663 0 8 -1086 10 -1092 2 -5 -7 -41 -84 -43
-90 -1 -5 -17 -40 -113 -240 -32 -69 -75 -159 -94 -200 -20 -41 -58 -122 -86
-180 -27 -58 -82 -175 -122 -260 -40 -85 -103 -220 -141 -299 -38 -79 -69
-145 -69 -147 0 -1 -31 -67 -69 -146 -37 -79 -80 -168 -94 -198 -14 -30 -47
-102 -75 -160 -120 -254 -146 -309 -177 -375 -47 -101 -108 -230 -184 -390
-37 -77 -89 -188 -116 -246 l-50 -106 -5 1521 -5 1521 -543 0 c-299 0 -546 -2
-548 -4z"/>
<path d="M10542 11666 c-3 -5 -5 -230 -5 -500 l0 -491 987 -1 c543 -1 990 -4
993 -7 3 -3 -25 -77 -62 -164 -36 -87 -82 -196 -101 -243 -20 -47 -39 -94 -44
-105 -5 -11 -44 -103 -86 -205 -42 -102 -82 -198 -89 -215 -16 -36 -75 -179
-140 -335 -26 -63 -53 -128 -61 -145 -7 -16 -115 -275 -239 -575 -124 -300
-232 -558 -240 -575 -7 -16 -22 -52 -33 -80 -19 -50 -562 -1353 -587 -1410 -7
-16 -100 -239 -206 -495 l-193 -465 -1 -491 0 -492 1611 1 1611 0 0 494 c0
302 -3 496 -9 499 -5 3 -475 6 -1045 6 -818 0 -1034 2 -1030 12 17 44 152 369
168 403 10 24 19 45 19 48 0 2 11 28 23 57 13 29 37 85 52 123 16 39 32 74 37
80 4 5 8 15 8 23 0 7 11 37 24 65 13 29 67 158 120 287 54 129 103 249 111
265 7 17 39 93 70 170 31 77 61 144 66 150 5 5 9 15 9 23 0 7 9 32 19 55 10
23 31 71 46 107 15 36 36 84 46 107 10 23 19 44 19 47 0 5 51 129 95 231 7 17
45 109 85 205 39 96 75 182 80 191 5 9 34 79 65 155 31 76 62 152 69 169 16
35 -2 -8 313 750 135 325 251 604 259 620 7 17 74 176 147 355 l135 325 -1
490 0 490 -1554 0 c-949 0 -1557 -4 -1561 -9z"/>
</g>
</svg>
